<svg xmlns="http://www.w3.org/2000/svg" width="355.004" height="300" viewBox="0 0 355.004 300"><path class="fill" d="M280.009 0h70v200.005h-70V0zM215.192 160.596c-11.844-13.239-28.314-20.683-49.443-22.288 18.795-5.122 32.443-12.616 41.077-22.628 8.593-9.88 12.856-23.292 12.856-40.171 0-13.362-2.922-25.184-8.579-35.397-5.805-10.152-14.14-18.276-25.102-24.357-9.586-5.274-20.98-8.994-34.262-11.188-13.349-2.126-36.709-3.198-70.231-3.198H0V298.63h83.976c33.737 0 58.064-1.182 72.94-3.441 14.863-2.337 27.334-6.27 37.428-11.662 12.484-6.587 22.007-15.964 28.662-28.01 6.698-12.085 10.014-26.02 10.014-41.956-.003-22.047-5.941-39.763-17.828-52.965zM75.26 67.27h17.398c20.108 0 33.617 2.267 40.59 6.787 6.877 4.542 10.388 12.38 10.388 23.547 0 10.745-3.733 18.313-11.118 22.751-7.483 4.354-21.117 6.562-41.079 6.562H75.26V67.27zm69.016 170.463c-7.916 4.862-21.557 7.251-40.696 7.251H75.265v-64.949h29.54c19.654 0 33.243 2.475 40.469 7.414 7.343 4.942 10.955 13.665 10.955 26.191-.003 11.21-3.966 19.259-11.953 24.093zM315.014 220.003c-22.101 0-40.002 17.891-40.002 39.991S292.914 300 315.014 300c22.072 0 39.99-17.906 39.99-40.006s-17.916-39.991-39.99-39.991z"/></svg>